<svg height="61" viewBox="0 0 61 61" width="61" xmlns="http://www.w3.org/2000/svg"><path d="m390 1059c-5.963 0-11 3.21-11 7a.5.5 0 0 0 1 0c0-3.2 4.673-6 10-6a.5.5 0 0 0 0-1zm0-5c-8.837 0-16 5.37-16 12 0 4.13 2.779 7.77 7.008 9.93 0 .02-.008.04-.008.07 0 1.79-1.339 3.72-1.928 4.74a.9.9 0 0 0 -.074.35.909.909 0 0 0 .906.91 1.235 1.235 0 0 1 .255-.01c3.125-.51 6.069-3.39 6.753-4.22a20.768 20.768 0 0 0 3.088.23c8.836 0 16-5.37 16-12s-7.164-12-16-12zm0 22a19.02 19.02 0 0 1 -2.8-.21 2.845 2.845 0 0 0 -.29-.02 2.02 2.02 0 0 0 -1.546.73 13.306 13.306 0 0 1 -3.085 2.54 7.8 7.8 0 0 0 .716-2.93c.006-.06.009-.13.009-.18a2.013 2.013 0 0 0 -1.09-1.79c-3.706-1.89-5.918-4.93-5.918-8.14 0-5.51 6.28-10 14-10s14 4.49 14 10-6.276 10-13.996 10z" fill="#666d89" fill-rule="evenodd" transform="translate(-359 -1037)"/><circle cx="30.5" cy="30.5" fill="none" r="29.5" stroke="#666d89" stroke-width="2"/></svg>