<svg height="61" viewBox="0 0 61 61" width="61" xmlns="http://www.w3.org/2000/svg"><path d="m390 928a11 11 0 0 0 -11 11c0 4.031 3.689 8.3 5.031 12.055 2 5.6 1.782 8.945 5.969 8.945 4.25 0 3.965-3.334 5.969-8.922 1.347-3.759 5.031-8.078 5.031-12.078a11 11 0 0 0 -11-11zm2.593 27.176-4.959.62c-.177-.513-.367-1.112-.6-1.893 0-.01-.007-.022-.009-.032l6.189-.773c-.088.3-.183.606-.264.884-.129.449-.25.839-.357 1.194zm-5.857-2.268q-.271-.9-.615-1.908h7.766c-.122.36-.245.719-.352 1.059zm3.264 5.092a1.737 1.737 0 0 1 -2-1.25l4.238-.53c-.61 1.653-1.057 1.78-2.238 1.78zm4.672-9h-9.333c-.5-1.079-1.1-2.16-1.686-3.217-1.3-2.335-2.653-4.75-2.653-6.783a9 9 0 0 1 18 0c0 2.018-1.35 4.446-2.655 6.795-.585 1.054-1.178 2.131-1.673 3.205zm-4.672-16a6.006 6.006 0 0 0 -6 6 .5.5 0 0 0 1 0 5.006 5.006 0 0 1 5-5 .5.5 0 0 0 0-1z" fill="#666d89" fill-rule="evenodd" transform="translate(-359 -914)"/><circle cx="30.5" cy="30.5" fill="none" r="29.5" stroke="#666d89" stroke-width="2"/></svg>