<svg height="61" viewBox="0 0 61 61" width="61" xmlns="http://www.w3.org/2000/svg"><path d="m723.192 933.792a9.632 9.632 0 0 0 -13.192-.287 9.632 9.632 0 0 0 -13.192.287 9.4 9.4 0 0 0 0 13.4c1.07 1.057 11.053 10.93 11.053 10.93a3.048 3.048 0 0 0 4.278 0l11.053-10.93a9.4 9.4 0 0 0 0-13.4zm-1.427 11.989-11.052 10.93a1.016 1.016 0 0 1 -1.425 0l-11.053-10.93a7.429 7.429 0 0 1 0-10.579 7.6 7.6 0 0 1 10.409-.222l1.356 1.22 1.356-1.219a7.6 7.6 0 0 1 10.409.222 7.427 7.427 0 0 1 0 10.578zm-18.513-9.755a4.247 4.247 0 0 0 -4.252 4.245.5.5 0 0 0 1 0 3.248 3.248 0 0 1 3.249-3.245.5.5 0 1 0 .003-1z" fill="#666d89" fill-rule="evenodd" transform="translate(-679 -914)"/><circle cx="30.5" cy="30.5" fill="none" r="29.5" stroke="#666d89" stroke-width="2"/></svg>